<?xml version="1.0" encoding="UTF-8"?>
<svg viewBox="0 0 141.50459 154.27263" xmlns="http://www.w3.org/2000/svg">
 <defs>
  <filter id="f">
   <feGaussianBlur stdDeviation="1.502"/>
  </filter>
  <filter id="h" x="-.1003" y="-.1439" width="1.2006" height="1.2878">
   <feGaussianBlur stdDeviation="1.337"/>
  </filter>
  <filter id="a" x="-.1725" y="-.092" width="1.345" height="1.184">
   <feGaussianBlur stdDeviation=".557"/>
  </filter>
  <filter id="g" x="-.3738" y="-.3471" width="1.7477" height="1.6943">
   <feGaussianBlur stdDeviation="1.489"/>
  </filter>
  <filter id="e" x="-.1028" y="-.1764" width="1.2055" height="1.3529">
   <feGaussianBlur stdDeviation="4.275"/>
  </filter>
  <linearGradient id="d" x1="209.43" x2="337.61" gradientUnits="userSpaceOnUse">
   <stop stop-color="#f4f7ec" offset="0"/>
   <stop stop-color="#f4f7ec" stop-opacity="0" offset="1"/>
  </linearGradient>
  <radialGradient id="c" cx="275.26" cy="200.91" r="70.752" gradientUnits="userSpaceOnUse">
   <stop stop-color="#ece8e4" offset="0"/>
   <stop stop-color="#e7e7d8" stop-opacity=".331" offset="1"/>
  </radialGradient>
  <radialGradient id="b" cx="277.68" cy="168.44" r="50.847" gradientTransform="matrix(1.5492 -.03753 .02665 .83198 -157 38.723)" gradientUnits="userSpaceOnUse">
   <stop stop-color="#a48f8a" offset="0"/>
   <stop stop-color="#a48f8a" stop-opacity="0" offset="1"/>
  </radialGradient>
 </defs>
 <g transform="translate(-204.5 -119.81)">
  <path d="m346.01 200.91c0 40.414-31.677 73.175-70.752 73.175s-70.752-32.762-70.752-73.175 31.677-73.175 70.752-73.175 70.752 32.762 70.752 73.175z" fill="#ece8e4"/>
  <path transform="translate(3.2837e-6 2.1216e-6)" d="m346.01 200.91c0 40.414-31.677 73.175-70.752 73.175s-70.752-32.762-70.752-73.175 31.677-73.175 70.752-73.175 70.752 32.762 70.752 73.175z" fill="url(#c)"/>
  <path transform="matrix(1 0 0 1.15 -.96921 -28.659)" d="m327.59 168.44c0 16.058-22.347 29.076-49.914 29.076s-49.914-13.018-49.914-29.076 22.347-29.076 49.914-29.076 49.914 13.018 49.914 29.076z" fill="url(#b)" filter="url(#e)" opacity=".571"/>
  <path transform="matrix(1 0 0 1.3044 0 -55.1)" d="m307.24 169.9c0 6.1557-7.1598 11.146-15.992 11.146s-15.992-4.9902-15.992-11.146 7.1598-11.146 15.992-11.146 15.992 4.9902 15.992 11.146z" fill="#fff" filter="url(#h)"/>
  <path d="m230.67 203.33c-5.4413-3.5587-11.915-12.141-17.446-8.7229-6.8705 4.2462-2.8703 16.681 0 24.23 6.9126 18.182 20.935 35.848 38.768 43.614 13.036 5.6771 29.196 3.6453 42.645-0.9692 11.796-4.0472 21.606-13.111 30.046-22.292 5.4003-5.8741 14.777-12.677 12.6-20.353-0.9858-3.4749-6.1016-4.4519-9.6921-4.8461-10.593-1.1628-20.395 6.8747-31.015 7.7537-16.15 1.3366-33.456 2.2434-48.46-3.8768-7.0091-2.8589-11.111-10.395-17.446-14.538z" fill="url(#d)" filter="url(#f)"/>
  <path transform="translate(-1.0931,-.8199)" d="m226.8 167.96c0 4.0146-1.7357 7.2691-3.8768 7.2691s-3.8768-3.2545-3.8768-7.2691 1.7357-7.2691 3.8768-7.2691 3.8768 3.2545 3.8768 7.2691z" fill="#fff" filter="url(#a)"/>
  <path transform="translate(109.12 3.3319)" d="m226.8 167.96c0 4.0146-1.7357 7.2691-3.8768 7.2691s-3.8768-3.2545-3.8768-7.2691 1.7357-7.2691 3.8768-7.2691 3.8768 3.2545 3.8768 7.2691z" fill="#fff" filter="url(#a)"/>
  <path transform="translate(2.2065,-2.9419)" d="m311.11 190.37c0 2.8434-2.1404 5.1484-4.7807 5.1484s-4.7807-2.305-4.7807-5.1484 2.1404-5.1484 4.7807-5.1484 4.7807 2.305 4.7807 5.1484z" fill="#fff" filter="url(#g)"/>
 </g>
</svg>
